<svg width="30" height="24" viewBox="0 0 30 24" fill="none" xmlns="http://www.w3.org/2000/svg">
<path fill-rule="evenodd" clip-rule="evenodd" d="M0.333313 0H19V5.33333H24.2717L29.6666 11.499V21.3333H26.7724C26.2233 22.8869 24.7416 24 23 24C21.2584 24 19.7767 22.8869 19.2276 21.3333H10.1057C9.55659 22.8869 8.07494 24 6.33331 24C4.59169 24 3.11004 22.8869 2.56092 21.3333H0.333313V0ZM2.99998 14.6667V17.7881C3.71659 16.7103 4.942 16 6.33331 16C8.07494 16 9.55659 17.1131 10.1057 18.6667H16.3333V14.6667H2.99998ZM16.3333 12H2.99998V2.66667H16.3333V12ZM19 14.6667V18.6667H19.2276C19.7767 17.1131 21.2584 16 23 16C24.7416 16 26.2233 17.1131 26.7724 18.6667H27V14.6667H19ZM26.5616 12H19V8H23.0616L26.5616 12ZM24.3333 20C24.3333 19.2636 23.7364 18.6667 23 18.6667C22.2636 18.6667 21.6666 19.2636 21.6666 20C21.6666 20.7364 22.2636 21.3333 23 21.3333C23.7364 21.3333 24.3333 20.7364 24.3333 20ZM6.33331 18.6667C5.59693 18.6667 4.99998 19.2636 4.99998 20C4.99998 20.7364 5.59693 21.3333 6.33331 21.3333C7.06969 21.3333 7.66665 20.7364 7.66665 20C7.66665 19.2636 7.06969 18.6667 6.33331 18.6667Z" fill="#B51D1D"/>
</svg>
