<svg width="56" height="45" viewBox="0 0 56 45" fill="none" xmlns="http://www.w3.org/2000/svg">
<path d="M18.8114 0C12.155 1.97492 7.23513 4.9373 4.34109 8.60501C1.44703 12.2727 0 17.2101 0 23.1348V45H24.7443V21.8652H13.168V21.5831C13.168 18.3386 13.8915 15.7994 15.3385 13.9655C16.7855 12.2727 19.5349 10.721 23.5865 9.31036L18.8114 0ZM50.0671 0C43.4109 1.97492 38.4909 4.9373 35.5969 8.60501C32.7028 12.2727 31.2557 17.2101 31.2557 23.1348V45H56V21.8652H44.4238V21.5831C44.4238 18.3386 45.1474 15.7994 46.5943 13.9655C48.0414 12.2727 50.7907 10.721 54.8424 9.31036L50.0671 0Z" fill="#1C232C"/>
</svg>
