<svg width="30" height="30" viewBox="0 0 30 30" fill="none" xmlns="http://www.w3.org/2000/svg">
<path d="M22.2172 10.9181L13 20.9732L7.78281 15.2818L9.74855 13.4798L13 17.0268L20.2514 9.1162L22.2172 10.9181Z" fill="#B51D1D"/>
<path fill-rule="evenodd" clip-rule="evenodd" d="M0.333313 15C0.333313 6.89986 6.8998 0.333374 15 0.333374C23.1002 0.333374 29.6666 6.89986 29.6666 15C29.6666 23.1002 23.1002 29.6667 15 29.6667C6.8998 29.6667 0.333313 23.1002 0.333313 15ZM15 3.00004C8.37256 3.00004 2.99998 8.37262 2.99998 15C2.99998 21.6275 8.37256 27 15 27C21.6274 27 27 21.6275 27 15C27 8.37262 21.6274 3.00004 15 3.00004Z" fill="#B51D1D"/>
</svg>
