<svg width="24" height="31" viewBox="0 0 24 31" fill="none" xmlns="http://www.w3.org/2000/svg">
<path fill-rule="evenodd" clip-rule="evenodd" d="M6.66667 12.3333C6.66667 9.38773 9.05448 6.99992 12 6.99992C14.9455 6.99992 17.3333 9.38773 17.3333 12.3333C17.3333 15.2788 14.9455 17.6666 12 17.6666C9.05448 17.6666 6.66667 15.2788 6.66667 12.3333ZM12 9.66658C10.5272 9.66658 9.33333 10.8605 9.33333 12.3333C9.33333 13.806 10.5272 14.9999 12 14.9999C13.4728 14.9999 14.6667 13.806 14.6667 12.3333C14.6667 10.8605 13.4728 9.66658 12 9.66658Z" fill="#B51D1D"/>
<path fill-rule="evenodd" clip-rule="evenodd" d="M0 12.3333C0 5.70583 5.37258 0.333252 12 0.333252C18.6274 0.333252 24 5.70583 24 12.3333C24 15.7015 22.4709 18.6536 20.3897 21.3559C18.6506 23.6141 16.4247 25.8207 14.2011 28.0251C13.7805 28.442 13.36 28.8589 12.9428 29.2761L12 30.2189L11.0572 29.2761C10.64 28.8589 10.2195 28.442 9.79889 28.0251C7.57529 25.8207 5.3494 23.6141 3.6103 21.3559C1.52911 18.6536 0 15.7015 0 12.3333ZM12 2.99992C6.84534 2.99992 2.66667 7.17859 2.66667 12.3333C2.66667 14.8561 3.80423 17.2373 5.72304 19.7288C7.34321 21.8326 9.41698 23.8896 11.643 26.0976C11.7616 26.2153 11.8806 26.3333 12 26.4518C12.1194 26.3333 12.2384 26.2153 12.357 26.0976C14.583 23.8896 16.6568 21.8326 18.277 19.7288C20.1958 17.2373 21.3333 14.8561 21.3333 12.3333C21.3333 7.17859 17.1547 2.99992 12 2.99992Z" fill="#B51D1D"/>
</svg>
