<svg width="21" height="20" viewBox="0 0 21 20" fill="none" xmlns="http://www.w3.org/2000/svg">
<path fill-rule="evenodd" clip-rule="evenodd" d="M17.2098 1.11578C12.8111 -0.0512895 8.18413 -0.0512895 3.78545 1.11578C3.06176 1.3082 2.40663 1.69994 1.89464 2.24639C1.38265 2.79285 1.03437 3.47208 0.889442 4.20676C0.370186 6.85724 0.370186 9.5833 0.889442 12.2338C1.03474 12.9691 1.38373 13.6487 1.89662 14.1952C2.4095 14.7417 3.06563 15.1331 3.7902 15.3248C6.44934 16.0311 9.20324 16.3135 11.9504 16.1617C12.3061 16.1412 12.6564 16.2568 12.93 16.4851L16.1684 19.2146C16.1973 19.2405 16.2332 19.2574 16.2716 19.2633C16.31 19.2691 16.3493 19.2636 16.3846 19.2474C16.4199 19.2313 16.4498 19.2052 16.4705 19.1723C16.4912 19.1395 16.5019 19.1013 16.5012 19.0625V15.8954C16.5012 15.6671 16.6534 15.4674 16.8769 15.4104L17.2098 15.3248C17.9344 15.1331 18.5905 14.7417 19.1034 14.1952C19.6163 13.6487 19.9653 12.9691 20.1106 12.2338C20.6298 9.5833 20.6298 6.85724 20.1106 4.20676C19.9653 3.47149 19.6163 2.79185 19.1034 2.24534C18.5905 1.69882 17.9344 1.30743 17.2098 1.11578ZM14.6657 3.77402C14.9653 3.77402 15.2078 4.01654 15.2078 4.31613V6.21827C15.2078 6.51786 14.9653 6.76038 14.6657 6.76038H12.7588C12.4544 6.76038 12.2119 7.00766 12.2119 7.30725V12.4716C12.2119 12.7711 11.9694 13.0137 11.6698 13.0137H9.48711C9.34333 13.0137 9.20545 12.9565 9.10378 12.8549C9.00212 12.7532 8.945 12.6153 8.945 12.4716V7.30725C8.945 7.00766 8.69772 6.76038 8.39814 6.76038H6.496C6.42441 6.76101 6.3534 6.74745 6.28708 6.72049C6.22076 6.69353 6.16043 6.65369 6.10959 6.60329C6.05875 6.55289 6.01839 6.49292 5.99085 6.42683C5.96331 6.36075 5.94913 6.28986 5.94913 6.21827V4.31613C5.94913 4.01654 6.1869 3.77402 6.49124 3.77402H14.6704H14.6657Z" fill="#1C232C"/>
</svg>
